<svg xmlns="http://www.w3.org/2000/svg" width="100" height="100" fill="none" viewBox="0 -6.5 100 100">
  <path fill="#D9D9D9" d="M14.77 44.826a2 2 0 0 1 .733.732l15.865 27.48a2 2 0 0 0 1.732 1h1.09a2 2 0 0 1 2 2v8.565a2 2 0 0 1-2 2h-8.345a2 2 0 0 1-1.732-1L.268 44.302a2 2 0 0 1 0-2L1.8 39.647a2 2 0 0 1 2.732-.732l10.238 5.91Zm50.089-33.26a2 2 0 0 1-1.732 1H59.19a2 2 0 0 0-2 2v57.471a2 2 0 0 0 2 2h7.09a2 2 0 0 0 1.732-1l16.59-28.735a2 2 0 0 0 0-2L69.841 16.733a2 2 0 0 1 0-2l4.946-8.566c.77-1.333 2.694-1.333 3.464 0l20.862 36.135a2 2 0 0 1 0 2l-23.845 41.3a2 2 0 0 1-1.732 1H44.191a2 2 0 0 1-2-2V14.567a2 2 0 0 0-2-2h-6.86a2 2 0 0 1-1.731-1L26.654 3c-.77-1.333.192-3 1.732-3h39.686c1.54 0 2.501 1.667 1.732 3l-4.945 8.566Z"/>
</svg>
